<svg xmlns="http://www.w3.org/2000/svg" width="214" height="70" viewBox="0 0 214 70" fill="none"><path d="M82.9727 50.4687C79.7648 50.4687 77.2956 49.4874 75.565 47.5247C73.8344 45.5619 72.9692 42.7867 72.9692 39.1989C72.9692 36.9196 73.3807 34.9569 74.2038 33.3108C75.048 31.6435 76.2615 30.3772 77.8443 29.5119C79.4271 28.6256 81.3054 28.1824 83.4792 28.1824C85.9484 28.1824 88.4915 28.7416 91.1085 29.8602C90.9186 31.7596 90.6125 33.8595 90.1905 36.1599L87.7845 36.3182L85.6002 33.1208C84.6716 32.8465 83.6481 32.7093 82.5295 32.7093C81.6853 32.7093 80.8834 32.7831 80.1236 32.9309C79.7859 33.5851 79.5116 34.4504 79.3005 35.5267C79.0895 36.6031 78.9839 37.69 78.9839 38.7874C78.9839 41.13 79.406 42.8711 80.2502 44.0108C81.1155 45.1293 82.4767 45.7097 84.3339 45.7519C85.0726 45.7519 86.0012 45.6464 87.1197 45.4353C88.2594 45.2032 89.3674 44.9077 90.4437 44.5489L91.4251 48.0312C90.3276 48.7487 88.9981 49.3397 87.4363 49.804C85.8957 50.2472 84.4078 50.4687 82.9727 50.4687ZM92.8791 46.9865L94.8418 46.4167V31.2531C94.8418 30.7888 94.8101 30.4933 94.7468 30.3667C94.6835 30.2189 94.5147 30.0607 94.2403 29.8918L92.8474 29.1637L92.9424 26.7578L93.9237 26.5995C96.7095 26.093 98.6617 25.8186 99.7802 25.7764C99.9702 26.2829 100.107 26.8317 100.192 27.4226V34.6403C101.353 34.1127 102.334 33.7328 103.136 33.5007C103.959 33.2474 104.771 33.1208 105.573 33.1208C108.866 33.1208 110.512 35.1257 110.512 39.1356V45.372C110.512 45.8152 110.544 46.1107 110.607 46.2584C110.67 46.4061 110.85 46.5644 111.145 46.7332L112.665 47.6196L112.538 49.9939H103.801L103.642 46.9865L105.194 46.5433V40.5285C105.194 39.5999 105.162 38.9457 105.099 38.5658C105.056 38.1648 104.888 37.8588 104.592 37.6477C104.297 37.4367 103.801 37.3312 103.104 37.3312C102.429 37.3312 101.458 37.4472 100.192 37.6794V45.372C100.192 45.8152 100.223 46.1107 100.287 46.2584C100.35 46.4061 100.519 46.5644 100.793 46.7332L102.344 47.6196L102.218 49.9939H93.0373L92.8791 46.9865ZM113.809 46.9865L115.74 46.4167V38.7241C115.74 38.2598 115.709 37.9643 115.645 37.8377C115.582 37.69 115.413 37.5317 115.139 37.3628L113.746 36.6031L113.841 34.2288C114.2 34.1444 114.506 34.0916 114.759 34.0705C117.313 33.5429 119.201 33.258 120.425 33.2158C120.615 33.7645 120.795 34.4504 120.964 35.2735C122.23 34.2816 123.306 33.5957 124.193 33.2158H125.997C125.976 34.0178 125.923 34.8936 125.839 35.8433C125.754 36.7719 125.649 37.5211 125.522 38.0909C124.762 38.0487 124.203 38.0276 123.844 38.0276C122.958 38.0276 122.04 38.0804 121.09 38.1859V45.372C121.09 45.8152 121.122 46.1107 121.185 46.2584C121.249 46.4061 121.417 46.5644 121.692 46.7332L123.591 47.7463L123.464 49.9939H113.967L113.809 46.9865ZM134.886 50.4054C132.205 50.4054 130.2 49.7195 128.871 48.3477C127.562 46.9759 126.908 44.876 126.908 42.048C126.908 40.233 127.235 38.6502 127.89 37.2995C128.565 35.9488 129.525 34.9147 130.77 34.1971C132.015 33.4796 133.482 33.1208 135.171 33.1208C140.637 33.1208 143.37 35.9488 143.37 41.6048C143.37 44.3695 142.62 46.5328 141.122 48.0945C139.645 49.6351 137.566 50.4054 134.886 50.4054ZM135.392 46.7016C135.814 46.7016 136.184 46.6699 136.5 46.6066C136.817 46.5222 137.154 46.3956 137.513 46.2267C137.64 45.7413 137.745 45.1187 137.83 44.359C137.914 43.5992 137.956 42.8711 137.956 42.1747C137.956 40.4652 137.682 39.1673 137.133 38.2809C136.606 37.3945 135.814 36.9513 134.759 36.9513C134.063 36.9513 133.356 37.0463 132.638 37.2362C132.49 37.5528 132.374 38.0698 132.29 38.7874C132.205 39.4838 132.163 40.2858 132.163 41.1933C132.163 42.9661 132.438 44.3273 132.986 45.277C133.556 46.2267 134.358 46.7016 135.392 46.7016ZM144.909 46.9548L146.871 46.385V38.7241C146.871 38.2598 146.84 37.9643 146.777 37.8377C146.713 37.69 146.544 37.5317 146.27 37.3628L144.877 36.6031L144.972 34.2288L145.669 34.1022C148.433 33.5535 150.428 33.258 151.652 33.2158C151.82 33.659 151.958 34.1444 152.063 34.672C153.351 34.0811 154.395 33.6801 155.197 33.469C156.02 33.2369 156.791 33.1208 157.508 33.1208C160.864 33.1208 162.542 35.1257 162.542 39.1356V45.3403C162.542 45.7835 162.573 46.079 162.637 46.2267C162.7 46.3745 162.879 46.5328 163.175 46.7016L164.694 47.588L164.568 49.9622H155.83L155.672 46.9548L157.223 46.5116V40.5285C157.223 39.5788 157.192 38.914 157.128 38.5341C157.065 38.1542 156.886 37.8588 156.59 37.6477C156.316 37.4367 155.82 37.3312 155.102 37.3312C154.342 37.3312 153.382 37.4472 152.221 37.6794V45.3403C152.221 45.7835 152.253 46.079 152.316 46.2267C152.38 46.3745 152.549 46.5328 152.823 46.7016L154.374 47.588L154.248 49.9622H145.067L144.909 46.9548ZM167.105 26.5679L172.487 25.1433L173.785 29.9551L168.435 31.4114L167.105 26.5679ZM165.776 47.0815L167.992 46.4167V38.7241C167.992 38.2598 167.949 37.9643 167.865 37.8377C167.802 37.69 167.622 37.5317 167.327 37.3628L165.934 36.6031L166.092 34.2288C167.844 33.8911 169.194 33.6484 170.144 33.5007C171.115 33.3319 172.001 33.2369 172.803 33.2158C173.078 34.1233 173.247 34.7986 173.31 35.2418V45.372C173.31 45.8152 173.342 46.1107 173.405 46.2584C173.468 46.4061 173.648 46.5644 173.943 46.7332L175.494 47.6196L175.368 49.9939H165.871L165.776 47.0815ZM176.75 46.7332L184.949 37.0779L181.119 37.3628L179.504 39.5155L177.383 39.1673C177.552 36.7191 177.721 34.8092 177.89 33.4374H190.648L191.091 37.1729L183.493 46.3534L187.482 46.0685L189.35 43.8525L191.534 44.2957C191.429 45.8996 191.228 47.799 190.933 49.9939H177.035L176.75 46.7332ZM200.667 50.3738C198.197 50.3738 196.287 49.6246 194.937 48.1261C193.607 46.6277 192.942 44.5595 192.942 41.9214C192.942 40.0853 193.269 38.513 193.924 37.2045C194.578 35.875 195.506 34.8619 196.709 34.1655C197.912 33.469 199.316 33.1208 200.92 33.1208C203.305 33.1208 205.13 33.8806 206.396 35.4001C207.684 36.9196 208.296 39.0828 208.233 41.8898L198.609 43.6625C198.904 44.5489 199.316 45.2032 199.843 45.6253C200.392 46.0262 201.11 46.2267 201.996 46.2267C202.608 46.2267 203.336 46.1423 204.18 45.9735C205.025 45.7835 205.879 45.5303 206.745 45.2137L207.473 48.3477C206.692 48.9387 205.679 49.4241 204.434 49.804C203.189 50.1838 201.933 50.3738 200.667 50.3738ZM203.041 39.2306C202.999 38.4286 202.766 37.8482 202.344 37.4895C201.943 37.1096 201.374 36.9196 200.635 36.9196C200.023 36.9196 199.442 37.0041 198.894 37.1729C198.451 38.207 198.25 39.3256 198.292 40.5285L203.041 39.2306Z" fill="url(#paint0_linear_73_962)"></path><path d="M12.7144 8.47794C12.0449 9.02672 11.3928 9.60204 10.7607 10.2015C10.6928 10.2658 10.6249 10.3314 10.5583 10.3958C9.51357 11.4001 8.54208 12.4549 7.64514 13.5537C7.40551 13.8465 7.17274 14.1417 6.94368 14.4408C6.48984 15.0337 6.05602 15.6392 5.64464 16.2564C5.39982 16.6235 5.16297 16.9944 4.9328 17.3691C4.83821 17.8927 4.78906 18.4316 4.78906 18.9804C4.78906 22.2773 6.56569 25.1804 9.26208 26.8749C10.022 27.6621 10.8924 28.3498 11.8505 28.9175L12.0449 29.0777L14.66 31.2491L14.7279 31.3046L26.3358 40.3335L28.657 42.1364L35.9926 47.8306L36.2281 47.996L37.1186 48.619L37.1373 48.6318C37.8052 48.9786 38.5786 49.1629 39.3917 49.13C40.5735 49.0809 41.6263 48.5814 42.3702 47.8116L42.3808 47.8016L42.7921 47.2968L47.0841 42.0508L48.0078 40.9177C47.6964 41.2191 47.2666 41.4122 46.7889 41.4324C46.3936 41.4489 46.0195 41.3441 45.7122 41.1498L45.4698 40.9694L42.4741 38.7323L42.3023 38.5975L42.3209 38.5848L42.3982 38.5431L37.9237 35.2021L37.5778 34.9322L27.4724 26.9783L25.657 25.5425L23.4013 23.7572L21.6512 22.3731L21.6471 22.3694L21.5008 22.2519L17.4989 19.0875L17.3004 18.9312C17.2739 18.916 17.2461 18.8997 17.2194 18.8833C17.1967 18.8707 17.1754 18.858 17.153 18.8454C16.345 18.3961 15.6197 17.8298 15.0033 17.1686C14.3807 16.5024 13.8696 15.7403 13.4956 14.9101C13.0418 13.9032 12.7916 12.7955 12.7916 11.6322C12.7916 11.5907 12.7916 11.5489 12.7929 11.5072C12.7916 11.4657 12.7916 11.4228 12.7916 11.3799V11.3547C12.7929 10.7768 12.8541 10.2127 12.9685 9.66657C13.0763 9.14417 13.2334 8.63691 13.4357 8.15249C13.489 8.02255 13.5461 7.89383 13.6062 7.76776C13.3054 7.99986 13.0086 8.23582 12.7144 8.47794Z" fill="url(#paint1_linear_73_962)"></path><path d="M50.2153 34.4479L46.5114 36.3659L42.3937 38.5409L42.3164 38.5826L42.2979 38.5952L42.4696 38.7301L45.4653 40.9672L45.7077 41.1476C46.0151 41.3419 46.3892 41.4467 46.7844 41.4302C47.2622 41.41 47.6919 41.2169 48.0033 40.9155C48.0061 40.9129 48.0098 40.9092 48.0115 40.9066C48.0247 40.8951 48.0365 40.8826 48.0486 40.87L48.0593 40.8587L48.2389 40.634L48.4132 40.4158L48.6888 40.0714L51.7511 36.2445L55.2831 31.8248L50.2153 34.4479Z" fill="url(#paint2_linear_73_962)"></path><path d="M0 34.8242C0 44.1254 3.8209 52.8704 10.7588 59.4463C17.6968 66.0235 26.9199 69.646 36.7309 69.646C46.5435 69.646 55.7664 66.0235 62.7042 59.4463C63.9338 58.2804 65.0665 57.0454 66.0968 55.7521C66.5332 55.2044 66.9511 54.6454 67.3504 54.0764C67.6778 53.3967 67.8588 52.6394 67.8588 51.842C67.8588 48.8532 65.3034 46.4306 62.1507 46.4306C60.2448 46.4306 58.5587 47.3152 57.5219 48.6751C57.4993 48.7053 57.478 48.7345 57.4553 48.7647C57.442 48.7811 57.4301 48.7988 57.4168 48.8164C52.7998 54.9294 45.2485 58.9215 36.7309 58.9215C25.6646 58.9215 16.2262 52.1815 12.746 42.8044L7.30405 38.5714L7.23617 38.5158L4.62083 36.3445L4.42665 36.1843C3.4685 35.6165 2.5979 34.9289 1.83802 34.1415C1.18999 33.7341 0.594992 33.2572 0.0667698 32.7222C0.0215148 33.4186 0 34.1202 0 34.8242Z" fill="url(#paint3_linear_73_962)"></path><path d="M22.7615 2.59744C22.204 2.81459 21.6528 3.04422 21.1073 3.28775C20.7612 3.4416 20.4164 3.60196 20.0742 3.76707C20.1143 4.81696 20.3593 5.81745 20.7718 6.73354C21.1457 7.56364 21.6568 8.3257 22.2797 8.99192C22.8958 9.65305 23.6212 10.2196 24.4291 10.6687C24.4515 10.6813 24.4729 10.694 24.4955 10.7066C24.5222 10.723 24.5502 10.7393 24.5767 10.7545L24.775 10.911L26.9085 12.5979C27.4207 12.3934 27.9399 12.2054 28.4683 12.0326C29.107 11.823 29.7579 11.6389 30.418 11.4787C30.7307 11.4017 31.0461 11.331 31.3629 11.2667C33.093 10.9122 34.8884 10.7255 36.729 10.7255C45.2839 10.7255 52.8646 14.7517 57.4734 20.911C57.8113 21.3617 58.1333 21.8247 58.4367 22.2978C59.4815 23.3892 60.9907 24.0755 62.6677 24.0755C65.8192 24.0755 68.3758 21.6531 68.3758 18.6641C68.3758 17.6357 68.0736 16.6756 67.5493 15.8582C67.5467 15.8531 67.5441 15.8492 67.5413 15.8455C67.4683 15.7407 67.395 15.6361 67.3217 15.5313C67.3177 15.5262 67.3138 15.5199 67.3099 15.5148C65.9763 13.6249 64.4364 11.8446 62.7022 10.2006C55.7645 3.62324 46.5415 0.000921249 36.729 0.000921249C31.8593 0.000921249 27.1333 0.894154 22.7615 2.59744Z" fill="url(#paint4_linear_73_962)"></path><path d="M13.9281 7.51846C13.8188 7.59917 13.7124 7.6811 13.6046 7.76462C13.5447 7.89069 13.4876 8.01941 13.4344 8.14935C13.232 8.63377 13.0749 9.14103 12.967 9.66343C12.8527 10.2096 12.7915 10.7736 12.79 11.3514V11.3767C12.79 11.4196 12.79 11.4625 12.7915 11.504C12.8075 12.6271 13.0471 13.7007 13.4676 14.685C13.4728 14.7592 13.4822 14.8338 13.4941 14.9069C13.8682 15.7372 14.3792 16.4992 15.002 17.1655C15.0593 17.2033 15.1192 17.2386 15.1789 17.2715C15.7552 17.8769 16.4193 18.4069 17.1514 18.8422C17.174 18.8549 17.1952 18.8675 17.218 18.8802C17.2378 18.8902 17.2579 18.9015 17.2792 18.9129C17.363 18.957 17.4482 19.0012 17.5348 19.0441C19.2355 17.1855 21.2305 15.5758 23.4504 14.2813C24.551 13.6388 25.7076 13.0751 26.9107 12.5956L24.7772 10.9087L24.579 10.7522C24.5525 10.7371 24.5244 10.7207 24.4977 10.7044C24.4751 10.6917 24.4538 10.679 24.4313 10.6664C23.6234 10.2173 22.898 9.65078 22.2819 8.98965C21.6591 8.32342 21.1479 7.56137 20.774 6.73127C20.3615 5.81518 20.1165 4.81469 20.0765 3.7648C17.9141 4.80959 15.8538 6.06504 13.9281 7.51846Z" fill="url(#paint5_linear_73_962)"></path><path d="M0.0703125 32.7242C0.598535 33.2592 1.19353 33.7361 1.84157 34.1435C2.60144 34.9309 3.47204 35.6186 4.43019 36.1863L4.62438 36.3465L7.23971 38.5179L7.30759 38.5734L12.7495 42.8064C11.8205 40.3069 11.316 37.6222 11.316 34.8263C11.316 32.8466 11.569 30.921 12.0468 29.079L9.71891 27.1475C6.76991 25.5008 4.79093 22.4602 4.79093 18.9817C4.79093 18.4327 4.84008 17.894 4.93449 17.3704C2.0812 22.0236 0.410838 27.2533 0.0703125 32.7242Z" fill="url(#paint6_linear_73_962)"></path><path d="M12.7144 8.47691C12.0449 9.02568 11.3928 9.601 10.7607 10.2004C10.6928 10.2648 10.6249 10.3304 10.5583 10.3947C9.51357 11.3991 8.54208 12.4539 7.64514 13.5527C7.40551 13.8454 7.17274 14.1406 6.94368 14.4397C6.48984 15.0326 6.05602 15.6382 5.64464 16.2554C5.39982 16.6225 5.16297 16.9933 4.9328 17.368C4.83821 17.8917 4.78906 18.4306 4.78906 18.9794C4.78906 22.2762 6.56569 25.1794 9.26208 26.8739C10.022 27.6611 10.8924 28.3487 11.8505 28.9165L12.0449 29.0767L14.66 31.248L14.7279 31.3036L26.3358 40.3324L28.657 42.1354L35.9926 47.8295L36.2281 47.995L37.1186 48.618L37.1373 48.6308C37.8052 48.9776 38.5786 49.1618 39.3917 49.1289C40.5735 49.0799 41.6263 48.5803 42.3702 47.8105L42.3808 47.8005L42.7921 47.2957L47.0841 42.0498L48.0078 40.9167C47.6964 41.2181 47.2666 41.4111 46.7889 41.4314C46.3936 41.4479 46.0195 41.3431 45.7122 41.1488L45.4698 40.9684L42.4741 38.7313L42.3023 38.5964L42.3209 38.5838L42.3982 38.5421L37.9237 35.2011L37.5778 34.9312L27.4724 26.9773L25.657 25.5414L23.4013 23.7562L21.6512 22.372L21.6471 22.3683L21.5008 22.2509L17.4989 19.0864L17.3004 18.9301C17.2739 18.915 17.2461 18.8987 17.2194 18.8823C17.1967 18.8696 17.1754 18.857 17.153 18.8443C16.345 18.3951 15.6197 17.8287 15.0033 17.1676C14.3807 16.5014 13.8696 15.7393 13.4956 14.909C13.0418 13.9022 12.7916 12.7945 12.7916 11.6312C12.7916 11.5897 12.7916 11.5478 12.7929 11.5061C12.7916 11.4646 12.7916 11.4217 12.7916 11.3788V11.3537C12.7929 10.7757 12.8541 10.2117 12.9685 9.66553C13.0763 9.14314 13.2334 8.63587 13.4357 8.15145C13.489 8.02151 13.5461 7.89279 13.6062 7.76672C13.3054 7.99882 13.0086 8.23479 12.7144 8.47691Z" fill="url(#paint7_linear_73_962)"></path><path d="M0 34.8235C0 44.1246 3.8209 52.8696 10.7588 59.4455C17.6968 66.0227 26.9199 69.6452 36.7309 69.6452C46.5435 69.6452 55.7664 66.0227 62.7042 59.4455C63.9338 58.2796 65.0665 57.0446 66.0968 55.7513C66.5332 55.2036 66.9511 54.6446 67.3504 54.0756C67.6778 53.3959 67.8588 52.6386 67.8588 51.8412C67.8588 48.8524 65.3034 46.4298 62.1507 46.4298C60.2448 46.4298 58.5587 47.3144 57.5219 48.6743C57.4993 48.7045 57.478 48.7337 57.4553 48.7639C57.442 48.7803 57.4301 48.798 57.4168 48.8156C52.7998 54.9286 45.2485 58.9207 36.7309 58.9207C25.6646 58.9207 16.2262 52.1807 12.746 42.8036L7.30405 38.5706L7.23617 38.515L4.62083 36.3437L4.42665 36.1835C3.4685 35.6157 2.5979 34.9281 1.83802 34.1407C1.18999 33.7333 0.594992 33.2564 0.0667698 32.7214C0.0215148 33.4179 0 34.1194 0 34.8235Z" fill="url(#paint8_linear_73_962)"></path><path d="M22.7615 2.5964C22.204 2.81355 21.6528 3.04318 21.1073 3.28671C20.7612 3.44056 20.4164 3.60093 20.0742 3.76603C20.1143 4.81592 20.3593 5.81641 20.7718 6.7325C21.1457 7.5626 21.6568 8.32466 22.2797 8.99089C22.8958 9.65201 23.6212 10.2185 24.4291 10.6676C24.4515 10.6803 24.4729 10.6929 24.4955 10.7056C24.5222 10.722 24.5502 10.7383 24.5767 10.7534L24.775 10.9099L26.9085 12.5968C27.4207 12.3924 27.9399 12.2044 28.4683 12.0315C29.107 11.822 29.7579 11.6379 30.418 11.4777C30.7307 11.4007 31.0461 11.33 31.3629 11.2656C33.093 10.9111 34.8884 10.7244 36.729 10.7244C45.2839 10.7244 52.8646 14.7506 57.4734 20.91C57.8113 21.3607 58.1333 21.8236 58.4367 22.2968C59.4815 23.3882 60.9907 24.0745 62.6677 24.0745C65.8192 24.0745 68.3758 21.652 68.3758 18.6631C68.3758 17.6346 68.0736 16.6746 67.5493 15.8571C67.5467 15.852 67.5441 15.8482 67.5413 15.8445C67.4683 15.7397 67.395 15.635 67.3217 15.5303C67.3177 15.5252 67.3138 15.5188 67.3099 15.5137C65.9763 13.6239 64.4364 11.8436 62.7022 10.1995C55.7645 3.6222 46.5415 -0.000116348 36.729 -0.000116348C31.8593 -0.000116348 27.1333 0.893116 22.7615 2.5964Z" fill="url(#paint9_linear_73_962)"></path><path d="M13.9281 7.51828C13.8188 7.59899 13.7124 7.68092 13.6046 7.76444C13.5447 7.89051 13.4876 8.01923 13.4344 8.14917C13.232 8.63358 13.0749 9.14085 12.967 9.66325C12.8527 10.2094 12.7915 10.7735 12.79 11.3512V11.3766C12.79 11.4195 12.79 11.4624 12.7915 11.5039C12.8075 12.6269 13.0471 13.7005 13.4676 14.6848C13.4728 14.759 13.4822 14.8336 13.4941 14.9067C13.8682 15.737 14.3792 16.4991 15.002 17.1653C15.0593 17.2031 15.1192 17.2384 15.1789 17.2713C15.7552 17.8767 16.4193 18.4067 17.1514 18.842C17.174 18.8547 17.1952 18.8673 17.218 18.88C17.2378 18.89 17.2579 18.9013 17.2792 18.9127C17.363 18.9568 17.4482 19.001 17.5348 19.0439C19.2355 17.1853 21.2305 15.5756 23.4504 14.2811C24.551 13.6386 25.7076 13.0749 26.9107 12.5954L24.7772 10.9085L24.579 10.752C24.5525 10.7369 24.5244 10.7205 24.4977 10.7042C24.4751 10.6915 24.4538 10.6789 24.4313 10.6662C23.6234 10.2171 22.898 9.65059 22.2819 8.98946C21.6591 8.32324 21.1479 7.56118 20.774 6.73108C20.3615 5.815 20.1165 4.81451 20.0765 3.76462C17.9141 4.80941 15.8538 6.06485 13.9281 7.51828Z" fill="url(#paint10_linear_73_962)"></path><path d="M0.0703125 32.7242C0.598535 33.2592 1.19353 33.7361 1.84157 34.1435C2.60144 34.9309 3.47204 35.6186 4.43019 36.1863L4.62438 36.3465L7.23971 38.5179L7.30759 38.5734L12.7495 42.8064C11.8205 40.3069 11.316 37.6222 11.316 34.8263C11.316 32.8466 11.569 30.921 12.0468 29.079L9.71891 27.1475C6.76991 25.5008 4.79093 22.4602 4.79093 18.9817C4.79093 18.4327 4.84008 17.894 4.93449 17.3704C2.0812 22.0236 0.410838 27.2533 0.0703125 32.7242Z" fill="url(#paint11_linear_73_962)"></path><defs><linearGradient id="paint0_linear_73_962" x1="143.089" y1="18.9939" x2="143.089" y2="68.3785" gradientUnits="userSpaceOnUse"><stop stop-color="#0D006B"></stop><stop offset="0.40625" stop-color="#C011F9"></stop></linearGradient><linearGradient id="paint1_linear_73_962" x1="21.1116" y1="45.0705" x2="25.9365" y2="29.1146" gradientUnits="userSpaceOnUse"><stop stop-color="#0D006B"></stop><stop offset="1" stop-color="#C011F9"></stop></linearGradient><linearGradient id="paint2_linear_73_962" x1="39.5805" y1="43.5111" x2="52.2323" y2="34.0621" gradientUnits="userSpaceOnUse"><stop stop-color="#0D006B"></stop><stop offset="0.143322" stop-color="#0D006B"></stop><stop offset="1" stop-color="#C011F9"></stop></linearGradient><linearGradient id="paint3_linear_73_962" x1="91.2183" y1="32.0341" x2="41.1984" y2="47.2164" gradientUnits="userSpaceOnUse"><stop stop-color="#0D006B"></stop><stop offset="1" stop-color="#C011F9"></stop></linearGradient><linearGradient id="paint4_linear_73_962" x1="82.2672" y1="2.54969" x2="32.2473" y2="17.7319" gradientUnits="userSpaceOnUse"><stop stop-color="#0D006B"></stop><stop offset="1" stop-color="#C011F9"></stop></linearGradient><linearGradient id="paint5_linear_73_962" x1="-9.92522" y1="28.7162" x2="22.0878" y2="7.13404" gradientUnits="userSpaceOnUse"><stop stop-color="#0D006B"></stop><stop offset="0.0691192" stop-color="#0D006B"></stop><stop offset="1" stop-color="#BF11F8"></stop></linearGradient><linearGradient id="paint6_linear_73_962" x1="13.6047" y1="22.7305" x2="6.43012" y2="35.0633" gradientUnits="userSpaceOnUse"><stop stop-color="#1F0279"></stop><stop offset="1" stop-color="#BF11F8"></stop></linearGradient><linearGradient id="paint7_linear_73_962" x1="21.1116" y1="45.0694" x2="25.9365" y2="29.1136" gradientUnits="userSpaceOnUse"><stop stop-color="#0D006B"></stop><stop offset="1" stop-color="#C011F9"></stop></linearGradient><linearGradient id="paint8_linear_73_962" x1="91.2183" y1="32.0333" x2="41.1984" y2="47.2156" gradientUnits="userSpaceOnUse"><stop stop-color="#0D006B"></stop><stop offset="1" stop-color="#C011F9"></stop></linearGradient><linearGradient id="paint9_linear_73_962" x1="82.2672" y1="2.54865" x2="32.2473" y2="17.7309" gradientUnits="userSpaceOnUse"><stop stop-color="#0D006B"></stop><stop offset="1" stop-color="#C011F9"></stop></linearGradient><linearGradient id="paint10_linear_73_962" x1="-9.92522" y1="28.7161" x2="22.0878" y2="7.13386" gradientUnits="userSpaceOnUse"><stop stop-color="#0D006B"></stop><stop offset="0.0691192" stop-color="#0D006B"></stop><stop offset="1" stop-color="#BF11F8"></stop></linearGradient><linearGradient id="paint11_linear_73_962" x1="13.6047" y1="22.7305" x2="6.43012" y2="35.0633" gradientUnits="userSpaceOnUse"><stop stop-color="#1F0279"></stop><stop offset="1" stop-color="#BF11F8"></stop></linearGradient></defs></svg>